<mxfile host="app.diagrams.net" agent="Mozilla/5.0 (Windows NT 10.0; Win64; x64) AppleWebKit/537.36 (KHTML, like Gecko) Chrome/131.0.0.0 Safari/537.36" version="25.0.3">
  <diagram id="C5RBs43oDa-KdzZeNtuy" name="Page-1">
    <mxGraphModel dx="1619" dy="1145" grid="1" gridSize="10" guides="1" tooltips="1" connect="1" arrows="1" fold="1" page="1" pageScale="1" pageWidth="827" pageHeight="1169" math="0" shadow="0">
      <root>
        <mxCell id="WIyWlLk6GJQsqaUBKTNV-0" />
        <mxCell id="WIyWlLk6GJQsqaUBKTNV-1" parent="WIyWlLk6GJQsqaUBKTNV-0" />
        <mxCell id="gt9hCJdkQPW9BFsV8sda-22" style="edgeStyle=orthogonalEdgeStyle;rounded=0;orthogonalLoop=1;jettySize=auto;html=1;entryX=0.5;entryY=0;entryDx=0;entryDy=0;" edge="1" parent="WIyWlLk6GJQsqaUBKTNV-1" source="gt9hCJdkQPW9BFsV8sda-0" target="gt9hCJdkQPW9BFsV8sda-7">
          <mxGeometry relative="1" as="geometry" />
        </mxCell>
        <mxCell id="gt9hCJdkQPW9BFsV8sda-0" value="Начало" style="ellipse;whiteSpace=wrap;html=1;" vertex="1" parent="WIyWlLk6GJQsqaUBKTNV-1">
          <mxGeometry x="-473" y="120" width="120" height="80" as="geometry" />
        </mxCell>
        <mxCell id="gt9hCJdkQPW9BFsV8sda-9" style="edgeStyle=orthogonalEdgeStyle;rounded=0;orthogonalLoop=1;jettySize=auto;html=1;entryX=0.5;entryY=0;entryDx=0;entryDy=0;" edge="1" parent="WIyWlLk6GJQsqaUBKTNV-1" source="gt9hCJdkQPW9BFsV8sda-1" target="gt9hCJdkQPW9BFsV8sda-2">
          <mxGeometry relative="1" as="geometry" />
        </mxCell>
        <mxCell id="gt9hCJdkQPW9BFsV8sda-1" value="&lt;div&gt;setlocale(LC_ALL, &quot;RU&quot;);&lt;/div&gt;&lt;div&gt;int count;&lt;/div&gt;&lt;div&gt;double num;&lt;/div&gt;" style="rounded=0;whiteSpace=wrap;html=1;" vertex="1" parent="WIyWlLk6GJQsqaUBKTNV-1">
          <mxGeometry x="-500" y="350" width="173" height="50" as="geometry" />
        </mxCell>
        <mxCell id="gt9hCJdkQPW9BFsV8sda-14" style="edgeStyle=orthogonalEdgeStyle;rounded=0;orthogonalLoop=1;jettySize=auto;html=1;entryX=0.5;entryY=0;entryDx=0;entryDy=0;" edge="1" parent="WIyWlLk6GJQsqaUBKTNV-1" source="gt9hCJdkQPW9BFsV8sda-2" target="gt9hCJdkQPW9BFsV8sda-3">
          <mxGeometry relative="1" as="geometry" />
        </mxCell>
        <mxCell id="gt9hCJdkQPW9BFsV8sda-2" value="&lt;div&gt;cout &amp;lt;&amp;lt; &quot;Введите значение x:&quot; &amp;lt;&amp;lt; endl &amp;lt;&amp;lt; &quot;x = &quot;;&lt;/div&gt;&lt;div&gt;cin &amp;gt;&amp;gt; num;&lt;/div&gt;&lt;div&gt;cout &amp;lt;&amp;lt; &quot;Введите количество членов ряда&quot; &amp;lt;&amp;lt; endl;&lt;/div&gt;&lt;div&gt;cin &amp;gt;&amp;gt; count;&lt;/div&gt;" style="shape=parallelogram;perimeter=parallelogramPerimeter;whiteSpace=wrap;html=1;fixedSize=1;" vertex="1" parent="WIyWlLk6GJQsqaUBKTNV-1">
          <mxGeometry x="-583" y="430" width="340" height="60" as="geometry" />
        </mxCell>
        <mxCell id="gt9hCJdkQPW9BFsV8sda-10" style="edgeStyle=orthogonalEdgeStyle;rounded=0;orthogonalLoop=1;jettySize=auto;html=1;entryX=0.5;entryY=0;entryDx=0;entryDy=0;" edge="1" parent="WIyWlLk6GJQsqaUBKTNV-1" source="gt9hCJdkQPW9BFsV8sda-3" target="gt9hCJdkQPW9BFsV8sda-4">
          <mxGeometry relative="1" as="geometry" />
        </mxCell>
        <mxCell id="gt9hCJdkQPW9BFsV8sda-19" value="{" style="edgeLabel;html=1;align=center;verticalAlign=middle;resizable=0;points=[];" vertex="1" connectable="0" parent="gt9hCJdkQPW9BFsV8sda-10">
          <mxGeometry x="-0.5571" y="1" relative="1" as="geometry">
            <mxPoint x="-18" y="1" as="offset" />
          </mxGeometry>
        </mxCell>
        <mxCell id="gt9hCJdkQPW9BFsV8sda-20" value="1" style="edgeLabel;html=1;align=center;verticalAlign=middle;resizable=0;points=[];" vertex="1" connectable="0" parent="gt9hCJdkQPW9BFsV8sda-10">
          <mxGeometry x="-0.4208" y="1" relative="1" as="geometry">
            <mxPoint x="12" as="offset" />
          </mxGeometry>
        </mxCell>
        <mxCell id="gt9hCJdkQPW9BFsV8sda-13" style="edgeStyle=orthogonalEdgeStyle;rounded=0;orthogonalLoop=1;jettySize=auto;html=1;entryX=0.5;entryY=0;entryDx=0;entryDy=0;" edge="1" parent="WIyWlLk6GJQsqaUBKTNV-1" source="gt9hCJdkQPW9BFsV8sda-3" target="gt9hCJdkQPW9BFsV8sda-5">
          <mxGeometry relative="1" as="geometry">
            <Array as="points">
              <mxPoint x="-140" y="555" />
              <mxPoint x="-140" y="700" />
              <mxPoint x="-413" y="700" />
            </Array>
          </mxGeometry>
        </mxCell>
        <mxCell id="gt9hCJdkQPW9BFsV8sda-17" value="0" style="edgeLabel;html=1;align=center;verticalAlign=middle;resizable=0;points=[];" vertex="1" connectable="0" parent="gt9hCJdkQPW9BFsV8sda-13">
          <mxGeometry x="-0.8683" y="1" relative="1" as="geometry">
            <mxPoint y="-14" as="offset" />
          </mxGeometry>
        </mxCell>
        <mxCell id="gt9hCJdkQPW9BFsV8sda-18" value="}" style="edgeLabel;html=1;align=center;verticalAlign=middle;resizable=0;points=[];" vertex="1" connectable="0" parent="gt9hCJdkQPW9BFsV8sda-13">
          <mxGeometry x="0.8502" y="2" relative="1" as="geometry">
            <mxPoint x="-4" y="-12" as="offset" />
          </mxGeometry>
        </mxCell>
        <mxCell id="gt9hCJdkQPW9BFsV8sda-3" value="while (count &amp;lt; 1)" style="rhombus;whiteSpace=wrap;html=1;" vertex="1" parent="WIyWlLk6GJQsqaUBKTNV-1">
          <mxGeometry x="-479.5" y="520" width="133" height="70" as="geometry" />
        </mxCell>
        <mxCell id="gt9hCJdkQPW9BFsV8sda-11" style="edgeStyle=orthogonalEdgeStyle;rounded=0;orthogonalLoop=1;jettySize=auto;html=1;" edge="1" parent="WIyWlLk6GJQsqaUBKTNV-1">
          <mxGeometry relative="1" as="geometry">
            <mxPoint x="-413.5127586206896" y="655" as="sourcePoint" />
            <mxPoint x="-413" y="510" as="targetPoint" />
            <Array as="points">
              <mxPoint x="-413" y="685" />
              <mxPoint x="-680" y="685" />
              <mxPoint x="-680" y="510" />
              <mxPoint x="-479" y="510" />
            </Array>
          </mxGeometry>
        </mxCell>
        <mxCell id="gt9hCJdkQPW9BFsV8sda-4" value="&lt;div&gt;cout &amp;lt;&amp;lt; &quot;Введите корректное количество членов ряда (натуральное число)&quot; &amp;lt;&amp;lt; endl;&lt;/div&gt;&lt;div&gt;cin &amp;gt;&amp;gt; count;&lt;/div&gt;" style="shape=parallelogram;perimeter=parallelogramPerimeter;whiteSpace=wrap;html=1;fixedSize=1;" vertex="1" parent="WIyWlLk6GJQsqaUBKTNV-1">
          <mxGeometry x="-670" y="630" width="513" height="30" as="geometry" />
        </mxCell>
        <mxCell id="gt9hCJdkQPW9BFsV8sda-15" style="edgeStyle=orthogonalEdgeStyle;rounded=0;orthogonalLoop=1;jettySize=auto;html=1;entryX=0.5;entryY=0;entryDx=0;entryDy=0;" edge="1" parent="WIyWlLk6GJQsqaUBKTNV-1" source="gt9hCJdkQPW9BFsV8sda-5" target="gt9hCJdkQPW9BFsV8sda-6">
          <mxGeometry relative="1" as="geometry" />
        </mxCell>
        <mxCell id="gt9hCJdkQPW9BFsV8sda-5" value="cout &amp;lt;&amp;lt; &quot;Сумма членов ряда = &quot; &amp;lt;&amp;lt; get_sum(num, count-1);" style="shape=parallelogram;perimeter=parallelogramPerimeter;whiteSpace=wrap;html=1;fixedSize=1;" vertex="1" parent="WIyWlLk6GJQsqaUBKTNV-1">
          <mxGeometry x="-600" y="730" width="374" height="30" as="geometry" />
        </mxCell>
        <mxCell id="gt9hCJdkQPW9BFsV8sda-6" value="return 0;" style="ellipse;whiteSpace=wrap;html=1;" vertex="1" parent="WIyWlLk6GJQsqaUBKTNV-1">
          <mxGeometry x="-450" y="800" width="73" height="40" as="geometry" />
        </mxCell>
        <mxCell id="gt9hCJdkQPW9BFsV8sda-8" style="edgeStyle=orthogonalEdgeStyle;rounded=0;orthogonalLoop=1;jettySize=auto;html=1;entryX=0.5;entryY=0;entryDx=0;entryDy=0;" edge="1" parent="WIyWlLk6GJQsqaUBKTNV-1" source="gt9hCJdkQPW9BFsV8sda-7" target="gt9hCJdkQPW9BFsV8sda-1">
          <mxGeometry relative="1" as="geometry" />
        </mxCell>
        <mxCell id="gt9hCJdkQPW9BFsV8sda-16" value="{" style="edgeLabel;html=1;align=center;verticalAlign=middle;resizable=0;points=[];" vertex="1" connectable="0" parent="gt9hCJdkQPW9BFsV8sda-8">
          <mxGeometry x="-0.2486" y="-1" relative="1" as="geometry">
            <mxPoint x="-16" as="offset" />
          </mxGeometry>
        </mxCell>
        <mxCell id="gt9hCJdkQPW9BFsV8sda-7" value="int main();" style="shape=process;whiteSpace=wrap;html=1;backgroundOutline=1;" vertex="1" parent="WIyWlLk6GJQsqaUBKTNV-1">
          <mxGeometry x="-473" y="240" width="120" height="60" as="geometry" />
        </mxCell>
        <mxCell id="gt9hCJdkQPW9BFsV8sda-21" value="}" style="text;html=1;align=center;verticalAlign=middle;resizable=0;points=[];autosize=1;strokeColor=none;fillColor=none;" vertex="1" parent="WIyWlLk6GJQsqaUBKTNV-1">
          <mxGeometry x="-414" y="840" width="30" height="30" as="geometry" />
        </mxCell>
        <mxCell id="gt9hCJdkQPW9BFsV8sda-23" value="" style="endArrow=none;html=1;rounded=0;" edge="1" parent="WIyWlLk6GJQsqaUBKTNV-1">
          <mxGeometry width="50" height="50" relative="1" as="geometry">
            <mxPoint x="-410" y="220" as="sourcePoint" />
            <mxPoint x="-310" y="220" as="targetPoint" />
          </mxGeometry>
        </mxCell>
        <mxCell id="gt9hCJdkQPW9BFsV8sda-24" value="" style="endArrow=none;html=1;rounded=0;" edge="1" parent="WIyWlLk6GJQsqaUBKTNV-1">
          <mxGeometry width="50" height="50" relative="1" as="geometry">
            <mxPoint x="-310" y="260" as="sourcePoint" />
            <mxPoint x="-310" y="160" as="targetPoint" />
          </mxGeometry>
        </mxCell>
        <mxCell id="gt9hCJdkQPW9BFsV8sda-25" value="&lt;div&gt;#include &amp;lt;iostream&amp;gt;&lt;/div&gt;&lt;div&gt;#include &amp;lt;cmath&amp;gt;&lt;/div&gt;&lt;div&gt;#include &amp;lt;clocale&amp;gt;&lt;/div&gt;&lt;div style=&quot;&quot;&gt;using namespace std;&lt;/div&gt;&lt;div style=&quot;&quot;&gt;int factorial() {}&lt;/div&gt;&lt;div style=&quot;&quot;&gt;double get_sum() {}&lt;/div&gt;" style="text;html=1;align=left;verticalAlign=middle;resizable=0;points=[];autosize=1;strokeColor=none;fillColor=none;" vertex="1" parent="WIyWlLk6GJQsqaUBKTNV-1">
          <mxGeometry x="-310" y="160" width="140" height="100" as="geometry" />
        </mxCell>
        <mxCell id="gt9hCJdkQPW9BFsV8sda-27" value="" style="endArrow=none;html=1;rounded=0;" edge="1" parent="WIyWlLk6GJQsqaUBKTNV-1">
          <mxGeometry width="50" height="50" relative="1" as="geometry">
            <mxPoint x="-310" y="160" as="sourcePoint" />
            <mxPoint x="-240" y="160" as="targetPoint" />
          </mxGeometry>
        </mxCell>
        <mxCell id="gt9hCJdkQPW9BFsV8sda-28" value="" style="endArrow=none;html=1;rounded=0;" edge="1" parent="WIyWlLk6GJQsqaUBKTNV-1">
          <mxGeometry width="50" height="50" relative="1" as="geometry">
            <mxPoint x="-310" y="260" as="sourcePoint" />
            <mxPoint x="-240" y="260" as="targetPoint" />
          </mxGeometry>
        </mxCell>
      </root>
    </mxGraphModel>
  </diagram>
</mxfile>
